# xmcd
#
# Track frame offsets:
#	150
#	16529
#	29271
#	45996
#	67417
#	82872
#	102195
#	118833
#	137382
#	141052
#	154750
#	171844
#
# Disc length: 2505 seconds
#
# Revision: 1
# Processed by: cddbd v1.5.2PL0 Copyright (c) Steve Scherf et al.
# Submitted via: audiograbber 1.83.01
#
DISCID=9009c70c
DTITLE=Austin de Lone - Soul Blues
DYEAR=2006
DGENRE=Blues
TTITLE0=Ain't Love a Funny Thing
TTITLE1=Sitting' Waitin'
TTITLE2=Salty Cheek
TTITLE3=Moving Day
TTITLE4=Two Time Loser
TTITLE5=Let's Walk
TTITLE6=Little Lost Lamb
TTITLE7=Let's Rock
TTITLE8=Pianolude
TTITLE9=I've Got Work to Do
TTITLE10=Old Fashion
TTITLE11=Satisfied Mind
EXTD=Superb SF Bay Area musicians
EXTT0=
EXTT1=
EXTT2=
EXTT3=
EXTT4=
EXTT5=
EXTT6=
EXTT7=
EXTT8=
EXTT9=
EXTT10=
EXTT11=
PLAYORDER=
